<?xml version="1.0"?>
<svg xmlns="http://www.w3.org/2000/svg" xmlns:xlink="http://www.w3.org/1999/xlink" xmlns:svgjs="http://svgjs.com/svgjs" version="1.1" width="512" height="512" x="0" y="0" viewBox="0 0 64 64" style="enable-background:new 0 0 512 512" xml:space="preserve" class=""><g><g xmlns="http://www.w3.org/2000/svg"><path d="m26.1 64h-22.5c-2 0-3.6-1.6-3.6-3.6v-22.5c0-2 1.6-3.6 3.6-3.6h22.5c2 0 3.6 1.6 3.6 3.6v22.5c0 2-1.6 3.6-3.6 3.6zm0-26.1h-22.5v22.5h22.5zm0-8.2h-22.5c-2 0-3.6-1.6-3.6-3.6v-22.5c0-2 1.6-3.6 3.6-3.6h22.5c2 0 3.6 1.6 3.6 3.6v22.5c0 2-1.6 3.6-3.6 3.6zm0-26.1h-22.5v22.5h22.5zm34.3 60.4h-22.5c-2 0-3.6-1.6-3.6-3.6v-22.5c0-2 1.6-3.6 3.6-3.6h22.5c2 0 3.6 1.6 3.6 3.6v22.5c0 2-1.6 3.6-3.6 3.6zm0-26.1h-22.5v22.5h22.5zm1.8-24.8h-11.3v-11.3c0-1-.8-1.8-1.8-1.8s-1.8.8-1.8 1.8v11.2h-11.2c-1 0-1.8.8-1.8 1.8s.8 1.8 1.8 1.8h11.2v11.2c0 1 .8 1.8 1.8 1.8s1.8-.8 1.8-1.8v-11.1h11.2c1 0 1.8-.8 1.8-1.8s-.7-1.8-1.7-1.8z" fill="#325de9" data-original="#000000" class=""/></g></g></svg>
