<?xml version="1.0"?>
<svg xmlns="http://www.w3.org/2000/svg" xmlns:xlink="http://www.w3.org/1999/xlink" xmlns:svgjs="http://svgjs.com/svgjs" version="1.1" width="512" height="512" x="0" y="0" viewBox="0 0 512 512" style="enable-background:new 0 0 512 512" xml:space="preserve"><g><g xmlns="http://www.w3.org/2000/svg"><path d="m43.464 447.141h29.522c4.15 0 7.515-3.364 7.515-7.515s-3.364-7.515-7.515-7.515h-29.522c-4.15 0-7.515 3.364-7.515 7.515s3.365 7.515 7.515 7.515z" fill="#325de9" data-original="#000000"/><path d="m43.464 477.323h58.832c4.15 0 7.515-3.364 7.515-7.515s-3.365-7.515-7.515-7.515h-58.832c-4.15 0-7.515 3.364-7.515 7.515s3.365 7.515 7.515 7.515z" fill="#325de9" data-original="#000000"/><path d="m138.245 267.194h29.522c4.15 0 7.515-3.364 7.515-7.515s-3.365-7.515-7.515-7.515h-29.522c-4.15 0-7.515 3.364-7.515 7.515s3.364 7.515 7.515 7.515z" fill="#325de9" data-original="#000000"/><path d="m138.245 297.376h58.832c4.15 0 7.515-3.364 7.515-7.515s-3.364-7.515-7.515-7.515h-58.832c-4.15 0-7.515 3.364-7.515 7.515s3.364 7.515 7.515 7.515z" fill="#325de9" data-original="#000000"/><path d="m233.031 447.141h29.523c4.15 0 7.515-3.364 7.515-7.515s-3.364-7.515-7.515-7.515h-29.523c-4.15 0-7.515 3.364-7.515 7.515s3.365 7.515 7.515 7.515z" fill="#325de9" data-original="#000000"/><path d="m291.863 462.293h-58.832c-4.15 0-7.515 3.364-7.515 7.515s3.365 7.515 7.515 7.515h58.832c4.15 0 7.515-3.364 7.515-7.515s-3.364-7.515-7.515-7.515z" fill="#325de9" data-original="#000000"/><path d="m280.102 99.217c-3.454.949-6.898 2.085-10.234 3.377-3.87 1.497-5.794 5.849-4.296 9.72 1.684 3.565 5.287 5.862 9.721 4.295 2.866-1.109 5.824-2.085 8.793-2.901 4.001-1.1 6.354-5.235 5.254-9.237-1.101-4.001-5.238-6.36-9.238-5.254z" fill="#325de9" data-original="#000000"/><path d="m320.641 96.016c-3.538-.388-7.148-.604-10.731-.643-.028 0-.055 0-.082 0-4.112 0-7.469 3.311-7.513 7.434-.045 4.15 3.284 7.55 7.433 7.595 3.092.032 6.206.219 9.255.553.278.03.554.046.828.046 3.783 0 7.039-2.85 7.461-6.697.453-4.126-2.525-7.836-6.651-8.288z" fill="#325de9" data-original="#000000"/><path d="m351.562 285.89c-2.731 1.422-5.564 2.72-8.42 3.86-3.855 1.537-5.733 5.909-4.196 9.764 1.174 2.941 3.997 4.732 6.982 4.732.927 0 1.869-.172 2.782-.537 3.322-1.325 6.616-2.835 9.792-4.488 3.682-1.917 5.112-6.454 3.195-10.136-1.916-3.681-6.454-5.111-10.135-3.195z" fill="#325de9" data-original="#000000"/><path d="m393.484 165.164c1.266 2.805 2.402 5.706 3.379 8.62 3.68 9.516 16.941 4.374 14.25-4.775-1.135-3.389-2.457-6.762-3.93-10.025-1.707-3.784-6.156-5.466-9.94-3.76-3.782 1.706-5.466 6.158-3.759 9.94z" fill="#325de9" data-original="#000000"/><path d="m359.507 108.027c-3.156-1.686-6.432-3.23-9.738-4.59-3.838-1.577-8.23.252-9.808 4.092-1.579 3.837.253 8.229 4.091 9.808 2.843 1.169 5.661 2.497 8.375 3.946 2.944 1.724 8.188.784 10.169-3.088 1.955-3.66.572-8.213-3.089-10.168z" fill="#325de9" data-original="#000000"/><path d="m389.632 263.399c-3.139-2.715-7.885-2.371-10.6.769-2.011 2.326-4.165 4.58-6.403 6.7-3.013 2.854-3.141 7.611-.286 10.623 2.501 2.566 7.273 3.397 10.624.287 2.597-2.461 5.098-5.078 7.434-7.78 2.714-3.139 2.37-7.885-.769-10.599z" fill="#325de9" data-original="#000000"/><path d="m408.748 191.377c-4.146.182-7.36 3.691-7.178 7.838.06 1.371.091 2.765.091 4.146 0 1.705-.047 3.431-.139 5.129-.225 4.145 2.953 7.686 7.097 7.911.138.007.276.011.413.011 3.964 0 7.28-3.103 7.497-7.108.106-1.969.16-3.968.16-5.943 0-1.599-.035-3.215-.105-4.805-.18-4.147-3.696-7.354-7.836-7.179z" fill="#325de9" data-original="#000000"/><path d="m406.109 229.231c-3.921-1.365-8.202.713-9.563 4.635-1.007 2.902-2.175 5.79-3.469 8.58-1.747 3.764-.11 8.232 3.655 9.979 3.098 1.577 8.173.304 9.979-3.656 1.505-3.244 2.861-6.6 4.033-9.976 1.361-3.92-.714-8.202-4.635-9.562z" fill="#325de9" data-original="#000000"/><path d="m318.022 295.868c-3.057.302-6.175.455-9.265.455-4.15 0-7.515 3.364-7.515 7.515s3.364 7.515 7.515 7.515c3.582 0 7.196-.177 10.742-.527 4.13-.408 7.148-4.086 6.74-8.217-.407-4.131-4.079-7.134-8.217-6.741z" fill="#325de9" data-original="#000000"/><path d="m379.666 143.293c1.486 1.755 3.605 2.658 5.739 2.658 1.715 0 3.44-.584 4.852-1.78 3.168-2.682 3.561-7.424.879-10.591-2.311-2.73-4.785-5.373-7.353-7.856-2.983-2.886-7.741-2.806-10.626.177s-2.806 7.741.178 10.625c2.21 2.139 4.341 4.415 6.331 6.767z" fill="#325de9" data-original="#000000"/><path d="m495.524 172.097-39.883-5.998c-3.583-14.202-9.182-27.72-16.692-40.308l23.969-32.469c5.733-7.768 4.942-18.362-1.882-25.189l-17.126-17.137c-6.828-6.832-17.42-7.623-25.187-1.884l-32.444 23.98c-12.578-7.513-26.087-13.114-40.278-16.699l-5.996-39.912c-1.435-9.55-9.484-16.481-19.137-16.481h-24.221c-9.655 0-17.704 6.931-19.138 16.482l-5.996 39.911c-14.19 3.585-27.7 9.186-40.277 16.699l-32.445-23.98c-7.767-5.742-18.36-4.949-25.186 1.884l-17.126 17.137c-6.824 6.827-7.616 17.42-1.883 25.189l23.971 32.471c-2.183 3.664-4.212 7.438-6.083 11.283h-70.189c-4.15 0-7.515 3.364-7.515 7.515v97.846c0 4.151 3.365 7.515 7.515 7.515s7.515-3.364 7.515-7.515v-90.332h52.575v53.716c.782 3.622 2.455 8.878 10.07 7.068l24.622-8.902 24.628 8.902c3.594 1.216 9.518-.604 10.069-7.068v-53.716h52.575v164.918h-87.266-.003-87.27v-44.527c0-4.151-3.365-7.515-7.515-7.515s-7.515 3.364-7.515 7.515v44.527h-87.265c-4.15 0-7.515 3.364-7.515 7.515v179.948c0 4.15 3.364 7.514 7.515 7.514h52.575c4.15 0 7.515-3.364 7.515-7.515s-3.364-7.515-7.515-7.515h-45.061v-164.918h52.575v53.717c-.099 4.738 4.983 8.821 10.07 7.066l24.621-8.901 24.628 8.902c3.912 1.704 10.288-1.667 10.069-7.068v-53.717h52.575v164.919h-99.418c-4.15 0-7.515 3.364-7.515 7.515s3.364 7.515 7.515 7.515h296.499c4.15 0 7.515-3.364 7.515-7.515v-165.031l24.562 18.153c7.366 5.489 18.21 5.105 25.186-1.883l17.126-17.137c6.824-6.829 7.615-17.423 1.882-25.189l-23.969-32.47c7.512-12.589 13.109-26.106 16.692-40.308l39.882-5.998c9.547-1.435 16.477-9.487 16.477-19.145v-24.235c-.001-9.656-6.93-17.708-16.477-19.145zm-278.779 23.018-17.114-6.186c-1.651-.597-3.458-.596-5.109.001l-17.107 6.184v-42.984c.172-.004.343-.009.513-.025h38.817zm55.454 136.937h39.33v43.011l-17.114-6.186c-1.651-.597-3.458-.596-5.109.001l-17.107 6.184zm-150.236 43.011-17.114-6.186c-1.651-.597-3.458-.596-5.109.001l-17.106 6.184v-43.01h39.329zm257.17 121.908h-174.536v-164.919h52.572v53.717c.143 4.661 4.573 8.926 10.069 7.068l24.622-8.902 24.628 8.902c4.163 1.648 10.177-1.665 10.069-7.068v-53.717h52.575v164.919zm117.838-281.494c0 2.161-1.548 3.962-3.682 4.282l-44.92 6.756c-3.089.465-5.568 2.792-6.228 5.844-3.457 15.996-9.707 31.092-18.579 44.868-1.69 2.624-1.582 6.021.272 8.531l26.992 36.565c1.283 1.739 1.106 4.11-.421 5.639l-17.125 17.138c-1.524 1.525-3.888 1.703-5.623.421l-36.192-26.749c-1.305-1.091-2.984-1.75-4.817-1.75h-87.27v-62.372c3.078.562 6.209.857 9.379.857 15.646 0 30.325-6.94 40.272-19.041 2.635-3.206 2.173-7.941-1.033-10.577-3.206-2.634-7.941-2.171-10.577 1.033-7.082 8.615-17.529 13.556-28.663 13.556-3.194 0-6.331-.411-9.379-1.209v-71.82c3.047-.798 6.185-1.209 9.379-1.209 20.453 0 37.092 16.652 37.092 37.119 0 4.151 3.365 7.515 7.515 7.515s7.515-3.364 7.515-7.515c0-28.755-23.382-52.149-52.122-52.149-3.171 0-6.302.295-9.379.857v-7.479c0-4.151-3.364-7.515-7.515-7.515h-50.088c1.387-.238 2.722-.865 3.831-1.893 2.258-2.095 4.647-4.101 7.101-5.962 3.306-2.509 3.953-7.223 1.445-10.529s-7.223-3.951-10.528-1.445c-2.847 2.16-5.619 4.488-8.239 6.919-3.042 2.823-3.221 7.577-.398 10.62 1.173 1.265 2.682 2.026 4.261 2.291h-49.812c1.432-2.579 2.929-5.118 4.516-7.583 1.69-2.625 1.582-6.022-.272-8.532l-26.991-36.563c-1.284-1.74-1.107-4.112.421-5.64l17.126-17.137c1.524-1.527 3.889-1.703 5.622-.422l36.543 27.009c2.513 1.857 5.913 1.965 8.539.273 13.765-8.876 28.851-15.13 44.838-18.59 3.052-.661 5.378-3.14 5.842-6.228l6.752-44.947c.32-2.136 2.119-3.686 4.275-3.686h24.221c2.157 0 3.954 1.551 4.275 3.686l6.752 44.947c.464 3.088 2.79 5.567 5.842 6.228 15.987 3.46 31.073 9.714 44.838 18.59 2.626 1.692 6.026 1.584 8.539-.273l36.544-27.006c1.733-1.283 4.098-1.104 5.623.421l17.127 17.137c1.527 1.528 1.704 3.9.42 5.639l-26.992 36.564c-1.854 2.511-1.962 5.907-.272 8.531 8.871 13.775 15.122 28.871 18.579 44.868.66 3.053 3.138 5.38 6.227 5.844l44.919 6.755c2.134.322 3.682 2.123 3.682 4.284v24.234z" fill="#325de9" data-original="#000000"/></g></g></svg>
