<?xml version="1.0"?>
<svg xmlns="http://www.w3.org/2000/svg" xmlns:xlink="http://www.w3.org/1999/xlink" xmlns:svgjs="http://svgjs.com/svgjs" version="1.1" width="512" height="512" x="0" y="0" viewBox="0 0 60 60" style="enable-background:new 0 0 512 512" xml:space="preserve"><g><g xmlns="http://www.w3.org/2000/svg" id="Page-1" fill="none" fill-rule="evenodd"><g id="019---Priorities" fill="rgb(0,0,0)" fill-rule="nonzero"><path id="Shape" d="m7 12c-.55228475 0-1 .4477153-1 1s.44771525 1 1 1h4c.5522847 0 1-.4477153 1-1s-.4477153-1-1-1h-1v-7c-.00008635-.4043959-.2437275-.76893405-.61734544-.92367798s-.80366031-.06922994-1.08965456.21667798l-2 2c-.37897221.39237889-.37355237 1.01608478.01218142 1.40181858.3857338.38573379 1.00943969.39115363 1.40181858.01218142l.293-.293v4.586z" fill="#325de9" data-original="#000000"/><path id="Shape" d="m9 54c-.55228475 0-1-.4477153-1-1s-.44771525-1-1-1-1 .4477153-1 1c-.00102953 1.3378219.88389162 2.5146497 2.16941877 2.8850394 1.28552716.3703896 2.66094833-.1551821 3.37189883-1.2884596.7109505-1.1332776.5855935-2.6003477-.3073176-3.5965798.8929111-.9962321 1.0182681-2.4633022.3073176-3.5965798-.7109505-1.1332775-2.08637167-1.6588492-3.37189883-1.2884596-1.28552715.3703897-2.1704483 1.5472175-2.16941877 2.8850394 0 .5522847.44771525 1 1 1s1-.4477153 1-1 .44771525-1 1-1 1 .4477153 1 1-.44771525 1-1 1-1 .4477153-1 1 .44771525 1 1 1 1 .4477153 1 1-.44771525 1-1 1z" fill="#325de9" data-original="#000000"/><path id="Shape" d="m7 29c.55228475 0 1-.4477153 1-1s.44771525-1 1-1 1 .4477153 1 1c0 1.6-2.233 4.056-3.641 5.232-.32337248.2696663-.44318538.713002-.29966937 1.1088465.14351602.3958445.5196116.6593852.94066937.6591535h4c.5522847 0 1-.4477153 1-1s-.4477153-1-1-1h-1.539c1.2-1.333 2.539-3.218 2.539-5 0-1.6568542-1.3431458-3-3-3-1.65685425 0-3 1.3431458-3 3 0 .2652165.10535684.5195704.29289322.7071068s.44189029.2928932.70710678.2928932z" fill="#325de9" data-original="#000000"/><path id="Shape" d="m4 18h10c2.209139 0 4-1.790861 4-4v-10c0-2.209139-1.790861-4-4-4h-10c-2.209139 0-4 1.790861-4 4v10c0 2.209139 1.790861 4 4 4zm-2-14c0-1.1045695.8954305-2 2-2h10c1.1045695 0 2 .8954305 2 2v10c0 1.1045695-.8954305 2-2 2h-10c-1.1045695 0-2-.8954305-2-2z" fill="#325de9" data-original="#000000"/><path id="Shape" d="m4 39h10c2.209139 0 4-1.790861 4-4v-10c0-2.209139-1.790861-4-4-4h-10c-2.209139 0-4 1.790861-4 4v10c0 2.209139 1.790861 4 4 4zm-2-14c0-1.1045695.8954305-2 2-2h10c1.1045695 0 2 .8954305 2 2v10c0 1.1045695-.8954305 2-2 2h-10c-1.1045695 0-2-.8954305-2-2z" fill="#325de9" data-original="#000000"/><path id="Shape" d="m23 39h22c1.6568542 0 3-1.3431458 3-3v-12c0-1.6568542-1.3431458-3-3-3h-22c-1.6568542 0-3 1.3431458-3 3v12c0 1.6568542 1.3431458 3 3 3zm-1-15c0-.5522847.4477153-1 1-1h22c.5522847 0 1 .4477153 1 1v12c0 .5522847-.4477153 1-1 1h-22c-.5522847 0-1-.4477153-1-1z" fill="#325de9" data-original="#000000"/><path id="Shape" d="m4 60h10c2.209139 0 4-1.790861 4-4v-10c0-2.209139-1.790861-4-4-4h-10c-2.209139 0-4 1.790861-4 4v10c0 2.209139 1.790861 4 4 4zm-2-14c0-1.1045695.8954305-2 2-2h10c1.1045695 0 2 .8954305 2 2v10c0 1.1045695-.8954305 2-2 2h-10c-1.1045695 0-2-.8954305-2-2z" fill="#325de9" data-original="#000000"/><path id="Shape" d="m55 8h-7v-5c0-1.65685425-1.3431458-3-3-3h-22c-1.6568542 0-3 1.34314575-3 3v12c0 1.6568542 1.3431458 3 3 3h22c1.6568542 0 3-1.3431458 3-3v-5h7c1.6568542 0 3 1.3431458 3 3v35c0 1.6568542-1.3431458 3-3 3h-5.586l2.293-2.293c.3789722-.3923789.3735524-1.0160848-.0121814-1.4018186s-1.0094397-.3911536-1.4018186-.0121814l-2.293 2.293v-4.586c0-1.6568542-1.3431458-3-3-3h-22c-1.6568542 0-3 1.3431458-3 3v12c0 1.6568542 1.3431458 3 3 3h22c1.6568542 0 3-1.3431458 3-3v-2.586l2.293 2.293c.3923789.3789722 1.0160848.3735524 1.4018186-.0121814s.3911536-1.0094397.0121814-1.4018186l-2.293-2.293h5.586c2.7600532-.0033061 4.9966939-2.2399468 5-5v-35c-.0033061-2.7600532-2.2399468-4.99669388-5-5zm-9 7c0 .5522847-.4477153 1-1 1h-22c-.5522847 0-1-.4477153-1-1v-12c0-.55228475.4477153-1 1-1h22c.5522847 0 1 .44771525 1 1zm0 42c0 .5522847-.4477153 1-1 1h-22c-.5522847 0-1-.4477153-1-1v-12c0-.5522847.4477153-1 1-1h22c.5522847 0 1 .4477153 1 1z" fill="#325de9" data-original="#000000"/><path id="Shape" d="m25 6h5c.5522847 0 1-.44771525 1-1s-.4477153-1-1-1h-5c-.5522847 0-1 .44771525-1 1s.4477153 1 1 1z" fill="#325de9" data-original="#000000"/><path id="Shape" d="m43 8h-18c-.5522847 0-1 .44771525-1 1s.4477153 1 1 1h18c.5522847 0 1-.44771525 1-1s-.4477153-1-1-1z" fill="#325de9" data-original="#000000"/><path id="Shape" d="m38 12h-13c-.5522847 0-1 .4477153-1 1s.4477153 1 1 1h13c.5522847 0 1-.4477153 1-1s-.4477153-1-1-1z" fill="#325de9" data-original="#000000"/><path id="Shape" d="m25 27h5c.5522847 0 1-.4477153 1-1s-.4477153-1-1-1h-5c-.5522847 0-1 .4477153-1 1s.4477153 1 1 1z" fill="#325de9" data-original="#000000"/><path id="Shape" d="m25 31h18c.5522847 0 1-.4477153 1-1s-.4477153-1-1-1h-18c-.5522847 0-1 .4477153-1 1s.4477153 1 1 1z" fill="#325de9" data-original="#000000"/><path id="Shape" d="m25 35h13c.5522847 0 1-.4477153 1-1s-.4477153-1-1-1h-13c-.5522847 0-1 .4477153-1 1s.4477153 1 1 1z" fill="#325de9" data-original="#000000"/><path id="Shape" d="m25 48h5c.5522847 0 1-.4477153 1-1s-.4477153-1-1-1h-5c-.5522847 0-1 .4477153-1 1s.4477153 1 1 1z" fill="#325de9" data-original="#000000"/><path id="Shape" d="m43 50h-18c-.5522847 0-1 .4477153-1 1s.4477153 1 1 1h18c.5522847 0 1-.4477153 1-1s-.4477153-1-1-1z" fill="#325de9" data-original="#000000"/><path id="Shape" d="m38 54h-13c-.5522847 0-1 .4477153-1 1s.4477153 1 1 1h13c.5522847 0 1-.4477153 1-1s-.4477153-1-1-1z" fill="#325de9" data-original="#000000"/></g></g></g></svg>
