<svg id="Outline" height="512" fill="#6c757d" viewBox="0 0 128 128" width="512" xmlns="http://www.w3.org/2000/svg"><path d="m123.123 13.438c-3.323-.963-8.569.661-12.252 6.493-2.368 3.75-2.107 8.4-1.83 13.319.113 2.018.23 4.1.176 6.22-.134 5.193-4.383 10.369-8.315 13.481-3.867 3.062-7.208 4.1-8.752 3.775-7.872-1.916-17.453-.778-27.6.43-12.82 1.526-26.075 3.1-35.495-1.927-3.492-1.883-4.763-3.948-6.373-6.563a29.349 29.349 0 0 0 -4.921-6.39 3.512 3.512 0 0 0 -2.845-.933 3.7 3.7 0 0 0 -2.687 1.627 19.1 19.1 0 0 0 -1.886 5.93c-1.786.994-6.11 3.952-6.381 9.431-.016.322-.587.889-1.047 1.344a6.093 6.093 0 0 0 -1.992 3.066c-.132.674-1.033 6.639 7.777 8.648 5.386 1.227 10.815 7.674 11.857 10.635.138.393.278.771.421 1.137-.126 8.15-1.037 21.7-3 25.129a5.454 5.454 0 0 0 -2.49 3.2 3.566 3.566 0 0 0 .361 2.633 1.5 1.5 0 0 0 1.273.708h5.592a1.5 1.5 0 0 0 1.171-.562 48.371 48.371 0 0 0 8.132-16.048c1.719 2.494 3.225 5.821 4.288 11.305-1.388 1.043-2.5 2.6-1.924 4.29a1.5 1.5 0 0 0 1.42 1.015h.009l6.252-.039a1.5 1.5 0 0 0 .978-.371c3.258-2.848 3.723-12.985 1.535-22.542.9.066 1.83.1 2.79.1 5.777 0 12.493-1.1 19.039-2.175q1.656-.271 3.26-.529c1.483 2.621 5.238 9.225 5.58 10.5.49 1.84-.906 6.6-2 9.475a4.515 4.515 0 0 0 -2.036 3.023 2.606 2.606 0 0 0 1.031 2.214 1.5 1.5 0 0 0 .945.335h4.26c.628 0 1.221 0 4.637-5.052a36.187 36.187 0 0 0 4.478-8.468 51.776 51.776 0 0 0 1.158-5.57c.55.469 1.081.915 1.58 1.334l.319.268a5.1 5.1 0 0 1 1.72 4.866l-1.373 7.151a4.1 4.1 0 0 0 -1.685 2.69 2.854 2.854 0 0 0 1.081 2.42 1.5 1.5 0 0 0 .977.361h4.264a2.328 2.328 0 0 0 1.677-.891c2.045-2.243 6.68-11.808 6.189-17.148a23.641 23.641 0 0 0 -.731-3.583c-.689-2.7-1.469-5.752-.623-9.333.725-3.061.743-10.615-.267-15.069a1.192 1.192 0 0 1 .523-1.286c5.806-3.581 16.019-12.478 17.466-23.111a39.647 39.647 0 0 0 -.014-8.454c-.254-3.391-.474-6.319.588-8.564.427-.9 1.661-1.6 2.967-2.338 2.14-1.21 4.8-2.715 4.8-6.012a5.51 5.51 0 0 0 -4.052-5.595zm-101.148 98.391h-3.416a3.739 3.739 0 0 1 1.3-1.182 1.5 1.5 0 0 0 .448-.427c2.328-3.39 3.187-14.552 3.5-21.578a35.9 35.9 0 0 0 4.416 5.178c.46.471.916.94 1.366 1.422-1.269 7.533-6.135 14.586-7.614 16.587zm61.723-11.4c-1.236 4.018-5.575 9.9-6.859 11.4h-2a4.453 4.453 0 0 1 .438-.322 1.5 1.5 0 0 0 .6-.72c.332-.835 3.212-8.262 2.274-11.778-.358-1.345-3.616-7.191-5.317-10.215a66.329 66.329 0 0 1 7.41-.737 35.526 35.526 0 0 0 4.821 5.32 67.285 67.285 0 0 1 -1.365 7.049zm37.202-77.989c-1.656.936-3.369 1.9-4.2 3.667-1.4 2.962-1.142 6.415-.868 10.072a37.252 37.252 0 0 1 .03 7.821c-1.3 9.543-11.078 17.885-16.068 20.962a4.193 4.193 0 0 0 -1.874 4.5 42.043 42.043 0 0 1 .274 13.714c-1.017 4.3-.1 7.885.636 10.766a21.478 21.478 0 0 1 .649 3.115c.4 4.336-3.834 13.091-5.328 14.765h-2.46a3.35 3.35 0 0 1 .414-.312 1.5 1.5 0 0 0 .7-1l1.487-7.745a8.106 8.106 0 0 0 -2.737-7.728l-.32-.269c-3.435-2.868-9.172-7.692-10.186-11.668a1.5 1.5 0 1 0 -2.907.741 9.749 9.749 0 0 0 .446 1.3c-3.67.244-8.057.957-12.665 1.713-7.534 1.235-16.016 2.623-22.152 1.948-.364-1.231-.772-2.44-1.228-3.6a1.5 1.5 0 1 0 -2.793 1.095 43.578 43.578 0 0 1 1.4 4.2q.011.045.024.09c2.634 9.512 1.917 18.784.218 21.22l-3.115.019c.138-.1.28-.189.419-.268a1.5 1.5 0 0 0 .749-1.571c-1.928-10.941-5.559-14.657-9.069-18.25a25.736 25.736 0 0 1 -6.983-10.7c-1.463-4.162-7.652-11.121-14.023-12.573-5.932-1.352-5.624-4.525-5.5-5.148a3.978 3.978 0 0 1 1.159-1.507 5.18 5.18 0 0 0 1.932-3.328c.243-4.892 5.136-7.122 5.339-7.212a1.5 1.5 0 0 0 .884-1.151 18.87 18.87 0 0 1 1.556-5.5.723.723 0 0 1 .518-.3.544.544 0 0 1 .434.119 26.459 26.459 0 0 1 4.441 5.8c1.7 2.759 3.3 5.365 7.509 7.633 10.258 5.478 23.99 3.843 37.269 2.263 9.866-1.175 19.185-2.283 26.581-.483 2.868.6 7.081-1.027 11.276-4.348 4.463-3.534 9.29-9.529 9.451-15.757.057-2.237-.063-4.387-.18-6.466-.26-4.62-.484-8.61 1.371-11.548 2.728-4.321 6.53-5.894 8.882-5.214a2.556 2.556 0 0 1 1.889 2.721c-.003 1.475-1.248 2.254-3.281 3.402z"/><path d="m9.4 57.009-.981 1.019a.549.549 0 0 0 -.155.347.558.558 0 0 0 .517.6l1.411.1a1.219 1.219 0 1 0 -.792-2.066z"/></svg>