<svg id="Icons" height="512" viewBox="0 0 512 512" width="512" xmlns="http://www.w3.org/2000/svg"><g fill="#6c757d"><path d="m416.73 224.84c-11.71.06-11.71 17.85 0 17.91s11.71-17.85 0-17.91z"/><path d="m464.88 277c-2.88-31.6-24.33-143.27-74.53-152.59-3.79-13.3-10.65-28.3-23-36.08-24.58-16.85-74.62 8.57-58.67 40.94-18.39-.13-32.53-2.15-57.47-16-61.15-39.42-209.33-1.43-193.44 107.99 1.79 38.25 14.74 74.25 20.17 104.87.67 14.75-20 33.67-28 39.71-7.22 5.15 0 16.91 7.86 12.7l24.52-12.3a123.64 123.64 0 0 1 34.05 4.76c21.34 6.26 79.2 7.28 129.91 8.28 28.37-.32 43-2.43 44.74-19.28 23.44-7.91 79-12.72 104.64-14.49-.32 5.88 2.59 14.45 10 12.56 15.75-3.82 23.85-9.78 21.52-30.3-1.91-11.54-17.12-4.89-22.45-.8-10.34-8.28-22.89-12.42-28-26.81 17.35 6.82 43 16.93 50.32 18 18.77 3.38 41.2-22.93 37.83-41.16zm-23.45 20.57c-4.95 4.61-9.79 6.21-11.66 5.88-9.77-1.81-43.72-16.08-57-20.74-15.77-2.96-15.43 12.29-8.77 25.61 2.95 7.94 11.55 17.89 21.15 23.11-26.41.73-87.58 9.31-103.38 15.5a146.21 146.21 0 0 0 -23.59-5.74c29.73-28.67-2-70.9-34.43-85.13a7.5 7.5 0 0 0 -6.6 13.47c21.37 10.48 41.07 30.91 37.36 49.66-2.07 10.5-12.12 17.1-27.55 18.12-8.94.37-9.2 14.24-.28 14.94 16.57 1.71 35.12 3.9 48.68 8.35-.25 1.32-16 4.73-32.35 3.62-48.25-1-102.94-2.05-122.5-7.64a140.14 140.14 0 0 0 -36.11-5.35c13.1-20.73 8.74-28.3 2.7-53.26-10.14-39.66-29-113.5 4-145.5 36.89-37.75 107.73-52.52 152.6-26.2 33.71 19.73 61.76 18.88 73.13 17.37 13.15 16.15 32.38 38.36 39.66 27.65a7.49 7.49 0 0 0 -1.51-10.5c-14-10.52-35.65-32.4-33.88-46.35 3.13-14.79 29.93-20.2 38.3-13.44 15.11 9.52 20 39.47 20.6 50.2a7.5 7.5 0 0 0 7.9 7.08c8.36-1.69 7.49-6.88 6.26-15.79 37.84 16.51 53.06 114.29 55.84 136.13.67 6.21-2.53 13.28-8.57 18.92z"/></g></svg>