<svg id="Layer_1" height="512" viewBox="0 0 512 512" width="512" xmlns="http://www.w3.org/2000/svg" data-name="Layer 1"><g fill="#5e5e72"><path d="m370.6 183.2c12.88 2.18 20.57 19.94 17.19 39.66s-16.57 33.96-29.44 31.78-20.57-19.94-17.19-39.67 16.57-33.95 29.44-31.77z"/><path d="m297.8 107.38c16.05 0 29.06 19.9 29.06 44.45s-13.01 44.44-29.06 44.44-29.07-19.9-29.07-44.44 13.02-44.45 29.07-44.45z"/><path d="m243.27 151.83c0 21.13-9.65 38.83-22.58 43.32l-35.08-35.31a67.481 67.481 0 0 1 -.47-8.01c0-24.55 13.01-44.45 29.06-44.45s29.07 19.9 29.07 44.45z"/><path d="m170.84 214.97c3.38 19.73-4.31 37.49-17.19 39.67s-26.06-12.05-29.44-31.78 4.31-37.48 17.19-39.66 26.05 12.04 29.44 31.77z"/><path d="m326.34 282.68a10.6 10.6 0 0 1 -7.25-10.09v-.18c0-34.62-28.25-62.68-63.09-62.68a63.431 63.431 0 0 0 -18.03 2.6l-.11.11-30.59 20.2-.2.19a62.2 62.2 0 0 0 -14.16 39.58v.18a10.6 10.6 0 0 1 -7.25 10.09 62.705 62.705 0 0 0 -42.47 61.15c.98 33.08 28 59.75 61.07 60.76a63.115 63.115 0 0 0 44.7-16.54 10.379 10.379 0 0 1 14.08 0 63.271 63.271 0 0 0 92.26-7.38l13.5-36.42c0-.14.01-.28.01-.42a62.705 62.705 0 0 0 -42.47-61.15z"/></g><path d="m153.65 254.64c4.639-.785 8.6-3.6 11.617-7.791-5.278-5.749-9.378-14.189-11.057-23.989-2.163-12.617.212-24.425 5.573-31.87-5.348-5.826-11.9-8.887-18.383-7.79-12.88 2.18-20.57 19.94-17.19 39.66s16.57 33.96 29.44 31.78z" fill="#47475e"/><path d="m173.19 343.83a62.705 62.705 0 0 1 42.47-61.15 10.6 10.6 0 0 0 7.25-10.09v-.18a62.2 62.2 0 0 1 14.16-39.58l.2-.19 30.59-20.2.11-.11c1-.3 2.007-.557 3.024-.8a63.667 63.667 0 0 0 -33.024.8l-.11.11-30.59 20.2-.2.19a62.2 62.2 0 0 0 -14.16 39.58v.18a10.6 10.6 0 0 1 -7.25 10.09 62.705 62.705 0 0 0 -42.47 61.15c.98 33.08 28 59.75 61.07 60.76a63.729 63.729 0 0 0 17-1.779c-26.884-6.562-47.222-30.366-48.07-58.981z" fill="#47475e"/><path d="m256 16c-132.55 0-240 107.45-240 240s107.45 240 240 240 240-107.45 240-240-107.45-240-240-240zm0 444.86c-113.14 0-204.86-91.72-204.86-204.86a204.028 204.028 0 0 1 47.87-131.62l288.61 288.61c-35.72 30.33-81.09 47.87-131.62 47.87zm156.48-72.63-287.66-289.59a204.041 204.041 0 0 1 131.18-47.5c113.14 0 204.86 91.72 204.86 204.86 0 50.77-17.8 96.44-48.38 132.23z" fill="#eb7288"/></svg>