<svg height="512" viewBox="0 0 60 60" width="512" xmlns="http://www.w3.org/2000/svg"><g id="Page-1" fill="none" fill-rule="evenodd"><g id="001---Vet" fill-rule="nonzero"><path id="Shape" d="m32 1h-4c-4.418278 0-8 3.581722-8 8v10c0 .5522847-.4477153 1-1 1h-10c-4.418278 0-8 3.581722-8 8v4c0 4.418278 3.581722 8 8 8h10c.5522847 0 1 .4477153 1 1v10c0 4.418278 3.581722 8 8 8h4c4.418278 0 8-3.581722 8-8v-6.6c-1.28.58-1.91 1.6-4.09 1.6-4.57 0-5-6-1.98-9 2.56-2.54 2.96-5.79 6.07-6.74v-8.26c0 2.55-1.33 4.67-3.25 4.94-2.19.32-4.31-1.86-4.75-4.87s.99-5.7 3.18-6.01 4.31 1.86 4.74 4.87c.051127.3544151.0778566.7119226.08 1.07v-13c0-4.418278-3.581722-8-8-8zm-2.04 32.77c-1.49.72-3.48-.3-4.44-2.29s-.54-4.19.95-4.91 3.48.3 4.44 2.29.54 4.19-.95 4.91z" fill="#a4c2f7"/><path id="Shape" d="m25.52 31.48c-.878-1.8-.6-3.765.566-4.656-.7723568-.52322-1.7574149-.618864-2.616-.254-1.49.72-1.92 2.92-.95 4.91s2.95 3.01 4.44 2.29c.1363093-.0713799.2649762-.1564877.384-.254-.793909-.4858265-1.4280399-1.1936613-1.824-2.036z" fill="#7facfa"/><path id="Shape" d="m34.148 16.434c-.5981543-.3345927-1.2888053-.4658445-1.968-.374-2.19.31-3.61 3-3.18 6.01s2.56 5.19 4.75 4.87c.3653789-.0581703.716513-.1847143 1.035-.373-1.5707964-.9906558-2.5980237-2.649342-2.785-4.497-.357-2.5.572-4.757 2.148-5.636z" fill="#7facfa"/><path id="Shape" d="m32 1h-3c4.418278 0 8 3.581722 8 8v7.365c1.6542378.9599764 2.7420965 2.6606871 2.92 4.565.051127.3544151.0778566.7119226.08 1.07v-13c0-4.418278-3.581722-8-8-8z" fill="#7facfa"/><path id="Shape" d="m37 26.873v3.387c-3.11.95-3.51 4.2-6.07 6.74-3.02 3-2.59 9 1.98 9 .5350342.0069457 1.0676418-.0730974 1.577-.237-3.195-1.126-3.225-6.112-.557-8.763 2.56-2.54 2.96-5.79 6.07-6.74v-8.26c0 2.435-1.219 4.458-3 4.873z" fill="#7facfa"/><path id="Shape" d="m37 51c0 4.418278-3.581722 8-8 8h3c4.418278 0 8-3.581722 8-8v-6.6c-1.033.468-1.656 1.215-3 1.488z" fill="#7facfa"/><path id="Shape" d="m48.09 46c-3.06 0-3.06-2-6.09-2-.6883936-.0202922-1.3723644.1165019-2 .4-1.28.58-1.91 1.6-4.09 1.6-4.57 0-5-6-1.98-9 2.56-2.54 2.96-5.79 6.07-6.74.6512868-.1794755 1.3244727-.2669897 2-.26 5.04 0 5.04 4 8.07 7s2.59 9-1.98 9z" fill="#e8edfc"/><path id="Shape" d="m50.07 37c-3.03-3-3.03-7-8.07-7-.4971795.0009614-.993004.0518839-1.48.152 3.551.746 3.862 4.187 6.55 6.848 2.671 2.653 2.637 7.645-.566 8.766.5126393.1627982 1.0481885.2418136 1.586.234 4.57 0 5-6 1.98-9z" fill="#cad9fc"/><path id="Shape" d="m40 22c0 2.55-1.33 4.67-3.25 4.94-2.19.32-4.31-1.86-4.75-4.87s.99-5.7 3.18-6.01 4.31 1.86 4.74 4.87c.051127.3544151.0778566.7119226.08 1.07z" fill="#e8edfc"/><path id="Shape" d="m39.92 20.93c-.43-3.01-2.55-5.19-4.74-4.87-.3640739.0601365-.713929.1869251-1.032.374 1.5692576.991526 2.5923881 2.6524523 2.772 4.5.0509448.3530932.0776739.7092581.08 1.066.1182639 1.8063363-.7232931 3.5415013-2.215 4.567.5971874.3342226 1.2868794.4651412 1.965.373 1.92-.27 3.25-2.39 3.25-4.94-.0021434-.3580774-.028873-.7155849-.08-1.07z" fill="#cad9fc"/><path id="Shape" d="m29.96 33.77c-1.49.72-3.48-.3-4.44-2.29s-.54-4.19.95-4.91 3.48.3 4.44 2.29.54 4.19-.95 4.91z" fill="#e8edfc"/><path id="Shape" d="m30.91 28.86c-.96-1.99-2.95-3.01-4.44-2.29-.1363093.0713799-.2649762.1564877-.384.254.793909.4858265 1.4280399 1.1936613 1.824 2.036.878 1.8.6 3.765-.566 4.656.7723568.52322 1.7574149.618864 2.616.254 1.49-.72 1.92-2.92.95-4.91z" fill="#cad9fc"/><path id="Shape" d="m52 22.07c-.44 3.01-2.56 5.19-4.75 4.87s-3.6-3-3.17-6.01 2.55-5.19 4.74-4.87 3.61 3 3.18 6.01z" fill="#e8edfc"/><path id="Shape" d="m48.82 16.06c-.6791947-.0918445-1.3698457.0394073-1.968.374 1.576.879 2.505 3.136 2.148 5.636-.1853045 1.8474502-1.2101484 3.506967-2.779 4.5.3169172.1874342.6657961.3145767 1.029.375 2.19.32 4.31-1.86 4.75-4.87s-.99-5.705-3.18-6.015z" fill="#cad9fc"/><path id="Shape" d="m58.48 31.48c-.96 1.99-2.95 3.01-4.44 2.29s-1.92-2.92-.95-4.91 2.95-3.01 4.44-2.29 1.92 2.92.95 4.91z" fill="#e8edfc"/><path id="Shape" d="m57.53 26.57c-.8585851-.364864-1.8436432-.26922-2.616.254 1.165.891 1.444 2.854.566 4.656-.3959601.8423387-1.030091 1.5501735-1.824 2.036.1190238.0975123.2476907.1826201.384.254 1.49.72 3.48-.3 4.44-2.29s.54-4.19-.95-4.91z" fill="#cad9fc"/><path id="Shape" d="m9 40h3c-4.418278 0-8-3.581722-8-8v-4c0-4.418278 3.581722-8 8-8h-3c-4.418278 0-8 3.581722-8 8v4c0 4.418278 3.581722 8 8 8z" fill="#fff"/><path id="Shape" d="m23 19v-10c0-4.418278 3.581722-8 8-8h-3c-4.418278 0-8 3.581722-8 8v10c0 .5522847-.4477153 1-1 1h3c.5522847 0 1-.4477153 1-1z" fill="#fff"/><path id="Shape" d="m28 59h3c-4.418278 0-8-3.581722-8-8v-10c0-.5522847-.4477153-1-1-1h-3c.5522847 0 1 .4477153 1 1v10c0 4.418278 3.581722 8 8 8z" fill="#fff"/><path id="Rectangle-path" d="m19 11h2v8h-2z" fill="#fff"/><g fill="#428dff"><path id="Shape" d="m20 12c.5522847 0 1-.4477153 1-1v-2c.0044086-3.86416566 3.1358343-6.99559136 7-7h4c3.8641657.00440864 6.9955914 3.13583434 7 7v7.656c-.9773749-1.1507241-2.4592595-1.745573-3.961-1.59-1.4498133.2480699-2.6868813 1.1890332-3.313 2.52-.715182 1.429266-.9641963 3.04681-.712 4.625.2025406 1.5855874.8971162 3.0677683 1.986 4.238.8500002.9409233 2.0484392 1.4924365 3.316 1.526.1913916-.0002533.3825289-.0139537.572-.041 1.4498133-.2480699 2.6868813-1.1890332 3.313-2.52.539163-1.0563983.8133731-2.2280541.799-3.414v-13c-.006061-4.96805005-4.0319499-8.99393904-9-9h-4c-4.9680501.00606096-8.993939 4.03194995-9 9v2c0 .5522847.4477153 1 1 1zm18.432 12.48c-.2931611.7900845-.9949377 1.3565778-1.8290832 1.4764862-.8341456.1199084-1.6670757-.2259708-2.1709168-.9014862-.7945755-.8669046-1.2980845-1.9606381-1.44-3.128-.1936611-1.1600107-.0187952-2.351547.5-3.407.3347633-.7583045 1.0159658-1.3075892 1.828-1.474 1.614-.229 3.263 1.613 3.61 4.027.0434343.3014098.0658219.605479.067.91v.017c.0162073.8603191-.177734 1.7116012-.565 2.48z"/><path id="Shape" d="m20.02 16c-.5522847.0027614-1.0022386-.4427153-1.005-.995s.4427153-1.0022386.995-1.005h.01c.5522847 0 1 .4477153 1 1s-.4477153 1-1 1z"/><path id="Shape" d="m9 41h10v10c.006061 4.9680501 4.0319499 8.993939 9 9h4c4.9680501-.006061 8.993939-4.0319499 9-9v-5.889c.3276248-.077264.6634064-.1145358 1-.111.8963506-.0180438 1.7711606.2756802 2.475.831 1.0434155.7778114 2.314726 1.1888076 3.616 1.169 1.9538375.0768059 3.7427066-1.0899699 4.46-2.909.9683975-2.7248983.2756445-5.7639723-1.778-7.8-.8260751-.8757968-1.5414327-1.8497579-2.13-2.9-1.322-2.159-2.688-4.391-6.643-4.391s-5.321 2.232-6.643 4.39c-.5885673 1.0502421-1.3039249 2.0242032-2.13 2.9-2.0536445 2.0360277-2.7463975 5.0751017-1.778 7.8.716965 1.819424 2.5059101 2.9866506 4.46 2.91 1.0896455.0261993 2.1634542-.2645732 3.091-.837v4.837c-.0044086 3.8641657-3.1358343 6.9955914-7 7h-4c-3.8641657-.0044086-6.9955914-3.1358343-7-7v-10c0-1.1045695-.8954305-2-2-2h-10c-3.86416566-.0044086-6.99559136-3.1358343-7-7v-4c.00440864-3.8641657 3.13583434-6.9955914 7-7h10c1.1045695 0 2-.8954305 2-2 0-.5522847-.4477153-1-1-1s-1 .4477153-1 1h-10c-4.96805005.006061-8.99393904 4.0319499-9 9v4c.00606096 4.9680501 4.03194995 8.993939 9 9zm26.909 4c-1.1418762.0760481-2.1999296-.6012034-2.609-1.67-.6414758-1.9759124-.1255365-4.1446329 1.337-5.62.9417085-.9870122 1.7572756-2.0870872 2.428-3.275 1.264-2.069 2.101-3.435 4.935-3.435s3.671 1.366 4.937 3.435c.6707244 1.1879128 1.4862915 2.2879878 2.428 3.275 1.4618303 1.4757927 1.9769847 3.6444577 1.335 5.62-.4090704 1.0687966-1.4671238 1.7460481-2.609 1.67-.9118534.0207057-1.802478-.2766406-2.519-.841-1.0305592-.7691251-2.2861936-1.1765383-3.572-1.159-.8139568-.0146184-1.621437.1470823-2.367.474-.016.006-.03.013-.045.02-.403517.1908853-.7913817.4132387-1.16.665-.716522.5643594-1.6071466.8617057-2.519.841z"/><path id="Shape" d="m26.034 25.67c-1.985.962-2.621 3.763-1.419 6.245.7552215 1.7575051 2.4287981 2.9460261 4.337 3.08.4999455.0023028.9938213-.1095375 1.444-.327 1.985-.962 2.621-3.764 1.418-6.244s-3.795-3.716-5.78-2.754zm3.49 7.2c-.978.474-2.4-.364-3.109-1.827s-.484-3.1.491-3.572c.187115-.0898724.3924346-.1353849.6-.133 1.1286062.1546965 2.0875097.9028856 2.512 1.96.706 1.462.482 3.102-.494 3.571z"/><path id="Shape" d="m47.112 27.934c.1894711.0270463.3806084.0407467.572.041 1.2674523-.0340293 2.4657166-.5854622 3.316-1.526 1.0888838-1.1702317 1.7834594-2.6524126 1.986-4.238.2521963-1.57819.003182-3.195734-.712-4.625-.6261187-1.3309668-1.8631867-2.2719301-3.313-2.52-2.725-.392-5.364 2.175-5.874 5.723-.251177 1.5781927-.0022107 3.1954248.712 4.625.6261187 1.3309668 1.8631867 2.2719301 3.313 2.52zm-2.045-6.861c.328-2.277 1.816-4.047 3.335-4.047.0920229.0001928.1839176.006876.275.02.8120342.1664108 1.4932367.7156955 1.828 1.474.5187952 1.055453.6936611 2.2469893.5 3.407-.1419155 1.1673619-.6454245 2.2610954-1.44 3.128-.5038411.6755154-1.3367712 1.0213946-2.1709168.9014862-.8341455-.1199084-1.5359221-.6864017-1.8290832-1.4764862-.5176597-1.0558125-.6918034-2.2471931-.498-3.407z"/><path id="Shape" d="m53.6 34.668c.4501787.2174625.9440545.3293028 1.444.327 1.9083536-.13438 3.5818838-1.323254 4.337-3.081 1.2-2.481.566-5.282-1.419-6.244s-4.577.274-5.78 2.754-.563 5.282 1.418 6.244zm.382-5.371c.4244903-1.0571144 1.3833938-1.8053035 2.512-1.96.2075654-.0023849.412885.0431276.6.133.975.472 1.2 2.109.491 3.572s-2.134 2.3-3.108 1.827-1.201-2.109-.491-3.569z"/><path id="Shape" d="m4 28c0 .5522847.44771525 1 1 1s1-.4477153 1-1c0-1.6568542 1.34314575-3 3-3 .55228475 0 1-.4477153 1-1s-.44771525-1-1-1c-2.76005315.0033061-4.99669388 2.2399468-5 5z"/><path id="Shape" d="m13 23c-.5522847 0-1 .4477153-1 1s.4477153 1 1 1h1c.5522847 0 1-.4477153 1-1s-.4477153-1-1-1z"/></g></g></g></svg>